<?xml version="1.0" encoding="utf-8"?><svg version="1.1" id="Layer_1" xmlns="http://www.w3.org/2000/svg" xmlns:xlink="http://www.w3.org/1999/xlink" x="0px" y="0px" viewBox="0 0 120.91 50.62" style="enable-background:new 0 0 120.91 50.62" xml:space="preserve"><style type="text/css">.st0{fill-rule:evenodd;clip-rule:evenodd;fill:#FF4141;} .st1{fill-rule:evenodd;clip-rule:evenodd;fill:#6BBE66;}</style><g><path class="st0" d="M95.6,0c13.98,0,25.31,11.33,25.31,25.31c0,13.98-11.33,25.31-25.31,25.31c-13.98,0-25.31-11.33-25.31-25.31 C70.29,11.33,81.62,0,95.6,0L95.6,0L95.6,0z M100.55,16.13c1.13-1.15,2.97-1.16,4.11-0.01c1.14,1.14,1.14,3,0.01,4.15l-4.97,5.04 l4.97,5.05c1.12,1.14,1.11,2.99-0.03,4.13c-1.14,1.14-2.98,1.14-4.1-0.01l-4.94-5.01l-4.95,5.02c-1.13,1.15-2.97,1.16-4.11,0.01 c-1.14-1.14-1.14-3-0.01-4.15l4.97-5.04l-4.98-5.05c-1.12-1.14-1.11-2.99,0.03-4.13c1.14-1.14,2.98-1.14,4.1,0.01l4.94,5.01 L100.55,16.13L100.55,16.13L100.55,16.13z"/><path class="st1" d="M25.31,0c13.98,0,25.31,11.33,25.31,25.31c0,13.98-11.33,25.31-25.31,25.31C11.33,50.62,0,39.29,0,25.31 C0,11.33,11.33,0,25.31,0L25.31,0L25.31,0z M14.11,25.98c0.34-1.97,2.59-3.06,4.36-2c0.16,0.1,0.31,0.21,0.46,0.34l0.01,0.01 c0.8,0.76,1.69,1.56,2.57,2.34l0.76,0.68l9-9.44C31.8,17.36,32.2,17,33,16.82c2.76-0.61,4.7,2.76,2.74,4.83L24.54,33.41 c-1.06,1.13-2.94,1.23-4.08,0.15c-0.65-0.6-1.36-1.22-2.07-1.84c-1.24-1.08-2.5-2.18-3.53-3.26 C14.23,27.85,13.97,26.83,14.11,25.98L14.11,25.98L14.11,25.98z"/></g></svg>